<?xml version="1.0" encoding="UTF-8" standalone="no"?>
<!-- Generator: Adobe Illustrator 19.0.0, SVG Export Plug-In . SVG Version: 6.00 Build 0)  -->

<svg
   xmlns:dc="http://purl.org/dc/elements/1.1/"
   xmlns:cc="http://creativecommons.org/ns#"
   xmlns:rdf="http://www.w3.org/1999/02/22-rdf-syntax-ns#"
   xmlns:svg="http://www.w3.org/2000/svg"
   xmlns="http://www.w3.org/2000/svg"
   xmlns:sodipodi="http://sodipodi.sourceforge.net/DTD/sodipodi-0.dtd"
   xmlns:inkscape="http://www.inkscape.org/namespaces/inkscape"
   version="1.1"
   id="Capa_1"
   x="0px"
   y="0px"
   viewBox="0 0 372 372"
   style="enable-background:new 0 0 372 372;"
   xml:space="preserve"
   sodipodi:docname="trading.svg"
   inkscape:version="0.92.3 (2405546, 2018-03-11)"><metadata
   id="metadata49"><rdf:RDF><cc:Work
       rdf:about=""><dc:format>image/svg+xml</dc:format><dc:type
         rdf:resource="http://purl.org/dc/dcmitype/StillImage" /><dc:title></dc:title></cc:Work></rdf:RDF></metadata><defs
   id="defs47" /><sodipodi:namedview
   pagecolor="#ffffff"
   bordercolor="#666666"
   borderopacity="1"
   objecttolerance="10"
   gridtolerance="10"
   guidetolerance="10"
   inkscape:pageopacity="0"
   inkscape:pageshadow="2"
   inkscape:window-width="730"
   inkscape:window-height="480"
   id="namedview45"
   showgrid="false"
   inkscape:zoom="0.6344086"
   inkscape:cx="186"
   inkscape:cy="186"
   inkscape:window-x="0"
   inkscape:window-y="0"
   inkscape:window-maximized="0"
   inkscape:current-layer="Capa_1" />
<g
   id="g6"
   style="fill:#ffffff">
	<g
   id="g4"
   style="fill:#ffffff">
		<path
   d="M320,19.6H52c-25.12,0-52,13.68-52,52v179.68c0,38.32,26.88,52,52,52h99.2v33.12h-16.48c-4.418,0-8,3.582-8,8s3.582,8,8,8    h105.6c4.418,0,8-3.582,8-8s-3.582-8-8-8H220.8v-33.12H320c38.32,0,52-26.88,52-52V71.6C372,33.28,345.12,19.6,320,19.6z     M204.8,336.4h-37.6v-33.12h37.6V336.4z M356,251.28c0,10.8-3.52,36-36,36H52c-10.8,0-36-3.52-36-36v-11.44h340V251.28z     M356,223.92H16v-152c0-32.48,25.2-36,36-36h268c10.8,0,36,3.52,36,36V223.92z"
   id="path2"
   style="fill:#ffffff" />
	</g>
</g>
<g
   id="g12"
   style="fill:#ffffff">
	<g
   id="g10"
   style="fill:#ffffff">
		<path
   d="M315.69,57.359c-3.532-2.654-8.547-1.942-11.201,1.59c-0.003,0.004-0.006,0.007-0.008,0.011l0.4,0l-59.68,80l-28-36.4    c-1.458-1.897-3.689-3.042-6.08-3.12c-2.381-0.068-4.669,0.93-6.24,2.72L159.28,154l-33.44-57.12    c-1.426-2.405-4.004-3.891-6.8-3.92c-2.808-0.016-5.42,1.441-6.88,3.84L56.96,186c-2.841,3.384-2.4,8.43,0.984,11.271    c3.384,2.841,8.43,2.4,11.271-0.984c0.573-0.682,1.027-1.455,1.345-2.287l48-78.24l32,55.12c2.231,3.814,7.131,5.096,10.945,2.865    c0.724-0.424,1.377-0.959,1.935-1.585L210,120.08l28.56,37.12c1.634,1.85,3.937,2.972,6.4,3.12c2.49-0.025,4.826-1.208,6.32-3.2    l66-88.56C319.934,65.028,319.222,60.013,315.69,57.359z"
   id="path8"
   style="fill:#ffffff" />
	</g>
</g>
<g
   id="g14">
</g>
<g
   id="g16">
</g>
<g
   id="g18">
</g>
<g
   id="g20">
</g>
<g
   id="g22">
</g>
<g
   id="g24">
</g>
<g
   id="g26">
</g>
<g
   id="g28">
</g>
<g
   id="g30">
</g>
<g
   id="g32">
</g>
<g
   id="g34">
</g>
<g
   id="g36">
</g>
<g
   id="g38">
</g>
<g
   id="g40">
</g>
<g
   id="g42">
</g>
</svg>